{"title":"Justin Timberlake - Suit &amp; Tie (Ft. JAY Z) 2013 M4A+MP4 (108","uid":8162928,"size":55364157,"categoryP":"video","categoryS":"music_videos","magnet":"?xt=urn:btih:cf511ffcbcd442635cebbe30f675fad381765056&amp;dn=Justin+Timberlake+-+Suit+%26amp%3B+Tie+%28Ft.+JAY+Z%29+2013+M4A%2BMP4+%28108&amp;tr=udp%3A%2F%2Ftracker.openbittorrent.com%3A80&amp;tr=udp%3A%2F%2Fopen.demonii.com%3A1337&amp;tr=udp%3A%2F%2Ftracker.coppersurfer.tk%3A6969&amp;tr=udp%3A%2F%2Fexodus.desync.com%3A6969","seeders":2,"leechers":0,"uploader":"Vitamin_X","files":-1,"time":1361282088,"description":"_________________________  Visit us at _________________________\n  &lt;a href=&quot;\nhttp://p2pdl.com&quot; rel=&quot;nofollow&quot; target=&quot;_NEW&quot;&gt;\nhttp://p2pdl.com&lt;/a&gt;  ____________________________ &lt;a href=&quot; http://p2pdl.com&quot; rel=&quot;nofollow&quot; target=&quot;_NEW&quot;&gt; http://p2pdl.com&lt;/a&gt;\n\n &lt;a href=&quot;\nhttp://www.shotpix.com/images/20724078753370659179.jpg&quot; rel=&quot;nofollow&quot; target=&quot;_NEW&quot;&gt;\nhttp://www.shotpix.com/images/20724078753370659179.jpg&lt;/a&gt;\n\n\nJustin Timberlake - Suit And Tie (Ft. JAY Z) 2013 M4A+MP4 (1080p) x264 [VX] [P2PDL]\n\n\n                                   1080p Full HD MP4 Video\n                                            +\n                                    128 Kbps/VBR M4A Audio\n\nGeneral\nComplete name                  : Justin Timberlake - Suit &amp; Tie Ft. Jay Z (1080p) x264 [VX] [P2PDL].mp4\nFormat                         : MPEG-4\nFormat profile                 : Base Media / Version 2\nCodec ID                       : mp42\nFile size                      : 47.0 MiB\nDuration                       : 5mn 29s\nOverall bit rate mode          : Variable\nOverall bit rate               : 1 194 Kbps\n\nVideo\nFormat                         : AVC\nFormat/Info                    : Advanced Video Codec\nWidth                          : 1 920 pixels\nHeight                         : 800 pixels\nDisplay aspect ratio           : 2.40:1\nFrame rate mode                : Variable\nFrame rate                     : 23.976 fps\nStream size                    : 41.8 MiB (89%)\nWriting library                : x264 core 129\n\nAudio\nFormat                         : AAC\nBit rate mode                  : Variable\nBit rate                       : 127 Kbps\nChannel(s)                     : 2 channels\nChannel positions              : Front: L R\nSampling rate                  : 48.0 KHz\nStream size                    : 5.00 MiB (11%)\nSubtitles                      : No\n\nScreens:\n &lt;a href=&quot;\nhttp://www.shotpix.com/images/87008767462780245798.jpg&quot; rel=&quot;nofollow&quot; target=&quot;_NEW&quot;&gt;\nhttp://www.shotpix.com/images/87008767462780245798.jpg&lt;/a&gt;\n------------------------------------------------------------------------\n\nNotes:\n\n* Recommended to use latest version VLC Media Player.\n* Install shark007 codecs in case of any kind of problem in playback (For non-VLC Media Player users).\n* Alternatively, install Core AVC codecs, the fastest decoder that there is coupled with Community Center Codec Pack and play on Windows Media Player Classic.\n\nGreets to: VYTO, a2zRG, MusiK_KinG, Kuroyukihime, Caveman, Ash968, Neon, TwentyForty, Masta, TorDigger and staff members at ExtraTorrent, TPB, H33T, KAT, 1337x, PublicHD, Ahashare, TorrentMafia, Limetorrents, BTScene, P2PDL, and all others\n\nEncoder Notes: Looking For Early Access To Anything You Can Provide DVDScr, R5, DVDRips, BluRay, Direct Audio, Early Music\nReleases, Seedboxes, Links, Dedicated Servers anything u can provide, Advance / Promo CDs/DVDs. If You Got anything to\noffer contact me at &quot;&lt;a class=&quot;__cf_email__&quot; href=&quot;/cdn-cgi/l/email-protection&quot; data-cfemail=&quot;abdbd9ccebc3ded8c385c8c4c6&quot;&gt;[email&amp;#160;protected]&lt;/a&gt;&lt;script cf-hash='f9e31' type=&quot;text/javascript&quot;&gt;\n/* &lt;![CDATA[ */!function(){try{var t=&quot;currentScript&quot;in document?document.currentScript:function(){for(var t=document.getElementsByTagName(&quot;script&quot;),e=t.length;e--;)if(t[e].getAttribute(&quot;cf-hash&quot;))return t[e]}();if(t&amp;&amp;t.previousSibling){var e,r,n,i,c=t.previousSibling,a=c.getAttribute(&quot;data-cfemail&quot;);if(a){for(e=&quot;&quot;,r=parseInt(a.substr(0,2),16),n=2;a.length-n;n+=2)i=parseInt(a.substr(n,2),16)^r,e+=String.fromCharCode(i);e=document.createTextNode(e),c.parentNode.replaceChild(e,c)}}}catch(u){}}();/* ]]&gt; */&lt;/script&gt;&quot;.","torrent":{"xt":"urn:btih:cf511ffcbcd442635cebbe30f675fad381765056","amp;dn":"Justin+Timberlake+-+Suit+%26amp%3B+Tie+%28Ft.+JAY+Z%29+2013+M4A%2BMP4+%28108","amp;tr":["udp%3A%2F%2Ftracker.openbittorrent.com%3A80","udp%3A%2F%2Fopen.demonii.com%3A1337","udp%3A%2F%2Ftracker.coppersurfer.tk%3A6969","udp%3A%2F%2Fexodus.desync.com%3A6969"],"infoHash":"cf511ffcbcd442635cebbe30f675fad381765056","infoHashBuffer":{"type":"Buffer","data":[207,81,31,252,188,212,66,99,92,235,190,48,246,117,250,211,129,118,80,86]},"announce":[],"urlList":[]}}